<?xml version="1.0" encoding="UTF-8"?>
<svg id="BITSmart" xmlns="http://www.w3.org/2000/svg" viewBox="0 0 6572.3301 1560.5723">
  <defs>
    <style>
      .cls-1 {
        fill: #112233;
      }
    </style>
  </defs>
  <g id="BrandLogo">
    <g id="Brand">
      <path class="cls-1" d="m1225.8379,263.3379h401.0625c109.3125,0,187.0781,32.5,233.2656,97.4688,27.1094,38.4062,40.6719,82.7031,40.6719,132.9062,0,58.6562-16.6719,106.75-50.0156,144.2969-17.3125,19.8438-42.2188,37.9844-74.7188,54.4375,47.7031,18.1562,83.375,38.6406,107.0312,61.4219,41.7969,40.5312,62.7031,96.4688,62.7031,167.8125,0,59.9531-18.8594,114.2031-56.5625,162.7344-56.3438,72.625-145.9531,108.9219-268.7969,108.9219h-394.6406V263.3379Zm353.8594,393c53.5625,0,95.2188-7.375,124.9844-22.1562,46.7656-23.2031,70.1562-64.9844,70.1562-125.3281,0-60.75-24.875-101.6875-74.6094-122.7969-28.0625-11.8125-69.7344-17.7188-125-17.7188h-226.3906v288h230.8594Zm42.5625,429c77.75,0,133.2031-22.3438,166.3438-67.0469,20.8125-28.25,31.2344-62.4062,31.2344-102.4688,0-67.4531-30.3906-113.4062-91.1406-137.875-32.2969-13.0625-75-19.6094-128.1094-19.6094h-251.75v327h273.4219Z"/>
      <path class="cls-1" d="m2121.2598,263.3379h127v930h-127V263.3379Z"/>
      <path class="cls-1" d="m3127.3301,263.3379v111h-313v819h-127V374.3379h-313v-111h753Z"/>
      <path class="cls-1" d="m3326.9785,893.3379c2.8438,52.7812,14.8125,95.625,35.9219,128.5469,40.1875,61.6406,111.0156,92.4531,212.5,92.4531,45.4531,0,86.8594-6.7344,124.2031-20.2344,72.25-26.1406,108.375-72.9375,108.375-140.4062,0-50.5938-15.3125-86.6406-45.9062-108.1406-31.0156-21.0781-79.5781-39.4219-145.6719-55.0469l-121.7969-28.4688c-79.5781-18.5469-135.8906-39.0156-168.9375-61.3906-57.125-38.8281-85.6875-96.875-85.6875-174.125,0-83.5625,28.0938-152.1562,84.2969-205.7656,56.2031-53.6094,135.7969-80.4219,238.7813-80.4219,94.7656,0,175.2812,23.5156,241.5312,70.5312s99.3906,122.1719,99.3906,225.4688h-118c-6.0625-49.6875-19-87.8125-38.7812-114.3438-36.7656-48.4375-99.1875-72.6562-187.25-72.6562-71.1094,0-122.2188,15.6094-153.3125,46.8281-31.1094,31.2188-46.6562,67.4844-46.6562,108.8281,0,45.5625,18.3594,78.875,55.0781,99.9688,24.0625,13.5,78.5312,30.375,163.4062,50.625l126.0781,29.75c60.7812,14.3438,107.7031,33.9375,140.7656,58.8125,57.1094,43.4375,85.6719,106.4531,85.6719,189.0781,0,102.875-36.4844,176.4531-109.4375,220.7188-72.9688,44.25-157.75,66.3906-254.3438,66.3906-112.625,0-200.7969-29.5156-264.5-88.5469-63.75-58.6094-95-138.0938-93.7188-238.4531h118Z"/>
      <path class="cls-1" d="m4094.4004,514.3379h113v97.5938c26.9531-33.3906,51.3906-57.7031,73.2969-72.9219,37.4844-25.7812,80.0312-38.6719,127.625-38.6719,53.9062,0,97.2969,13.3281,130.1562,39.9531,18.5312,15.2188,35.375,37.6094,50.5469,67.2031,25.3281-36.3438,55.0938-63.2969,89.2969-80.8438,34.2031-17.5312,72.625-26.3125,115.2812-26.3125,91.1875,0,153.2656,32.9219,186.2031,98.7344,17.7188,35.4375,26.5938,83.125,26.5938,143.0312v451.2344h-118v-470.6875c0-45.125-11.3125-76.125-33.9375-93s-50.2188-25.3125-82.7812-25.3125c-44.8281,0-83.4219,14.9844-115.7656,44.9219-32.3438,29.9531-48.5156,79.9375-48.5156,149.9375v394.1406h-116v-442.0312c0-45.9375-5.4844-79.4531-16.4219-100.5469-17.2812-31.6094-49.5-47.4219-96.6562-47.4219-42.9531,0-82.0156,16.625-117.1719,49.8438-35.1719,33.2344-52.75,93.5-52.75,180.7969v359.3594h-114v-679Z"/>
      <path class="cls-1" d="m5536.9941,783.3691c26.1562-3.375,43.6719-14.3281,52.5469-32.8594,4.9531-10.1719,7.4375-24.7969,7.4375-43.875,0-39-13.8281-67.3125-41.4688-84.9062-27.6562-17.5938-67.2188-26.3906-118.7031-26.3906-59.5,0-101.7031,16.1406-126.6094,48.3906-13.9375,17.8438-23,44.375-27.2188,79.6094h-106c2.1094-83.75,29.2188-142.0312,81.3281-174.8125,52.0938-32.7812,112.5469-49.1875,181.3281-49.1875,79.7344,0,144.5,15.1562,194.2969,45.4688,49.3594,30.3281,74.0469,77.5625,74.0469,141.7188v390.6094c0,11.8125,2.4062,21.3125,7.25,28.4688,4.8281,7.1562,15.0156,10.7344,30.5625,10.7344,5.0312,0,10.7031-.3125,17.0156-.9531,6.2969-.625,13.0156-1.5781,20.1719-2.8438v84.3594c-17.7031,5.0781-31.1875,8.25-40.4531,9.5312-9.2812,1.2656-21.9219,1.9062-37.9219,1.9062-39.1875,0-67.6406-13.9531-85.3281-41.8594-9.2812-14.7812-15.8125-35.7188-19.5938-62.7812-23.2188,30.6562-56.5625,57.25-100.0312,79.8125-43.4688,22.5469-91.375,33.8281-143.7031,33.8281-62.875,0-114.2656-19.125-154.1406-57.3438-39.8906-38.2188-59.8281-86.0625-59.8281-143.5156,0-62.9375,19.625-111.7344,58.875-146.375,39.25-34.625,90.7344-55.9688,154.4688-64l181.6719-22.7344Zm-239.9375,307.5938c24.0625,18.9219,52.5469,28.375,85.4688,28.375,40.0938,0,78.9219-9.2344,116.4844-27.7344,63.3125-30.6875,94.9688-80.9844,94.9688-150.9219v-91.6094c-13.9375,9.2344-31.8906,16.9219-53.8438,23.0781-21.9688,6.1562-43.5,10.4219-64.6094,12.8125l-69.0312,8.3594c-41.3906,5.1875-72.4062,13.6719-93.0469,25.4375-34.9844,19.7812-52.4688,51.3125-52.4688,94.6094,0,32.8125,12.0156,58.6719,36.0781,77.5938Z"/>
      <path class="cls-1" d="m5897.752,514.3379h108v117.8594c8.875-22.7031,30.6406-50.3594,65.3281-82.9531,34.6719-32.5938,74.6406-48.9062,119.8906-48.9062,2.1094,0,5.7031.2031,10.7812.6094,5.0625.4062,13.7344,1.2031,26,2.3906v120c-6.7656-1.1875-13-1.9844-18.6875-2.3906-5.7031-.4062-11.9375-.6094-18.6875-.6094-57.4375,0-101.5625,18.4531-132.3906,55.3438s-46.2344,79.4062-46.2344,127.5312v390.125h-114v-679Z"/>
      <path class="cls-1" d="m6349.3301,326.3379h114v188h109v94h-109v442.5469c0,23.6406,8.0625,39.4688,24.2188,47.4844,8.9219,4.6562,23.7969,6.9688,44.625,6.9688,5.5156,0,11.4688-.1562,17.8438-.5,6.375-.3281,13.8125-1.1562,22.3125-2.5v91c-13.0625,3.875-26.6406,6.6875-40.75,8.4219-14.1094,1.7031-29.375,2.5781-45.7969,2.5781-53.0625,0-89.0781-13.6094-108.0312-40.8438s-28.4219-62.5938-28.4219-106.0938v-449.0625h-92v-94h92v-188Z"/>
    </g>
    <g id="Logo">
      <g>
        <path class="cls-1" d="m662.8379,1181.5264c-24.71-6.4805-44.208-25.9785-50.689-50.6885h50.689v50.6885Z"/>
        <path class="cls-1" d="m611.1196,1094.8379c7.916-55.0996,51.6182-98.8018,106.7183-106.7178v106.7178h-106.7183Z"/>
        <path class="cls-1" d="m753.8379,1183.8379v-196.2539c104.2197,8.6826,187.5713,92.0342,196.2534,196.2539h-196.2534Z"/>
        <path class="cls-1" d="m609.8379,1219.8379h340.5596c-4.3706,89.1328-41.1592,172.3037-104.7051,235.8506-63.5464,63.5479-146.7192,100.3389-235.8545,104.709v-340.5596Z"/>
        <path class="cls-1" d="m573.8379,1560.5723c-73.5664-2.1758-144.9453-17.707-212.4263-46.248-70.4927-29.8154-133.8057-72.5029-188.1797-126.877-54.3745-54.374-97.0625-117.6865-126.8789-188.1787C17.8105,1131.7861,2.2793,1060.4062.1035,986.8379h573.7344v573.7344Z"/>
        <path class="cls-1" d="m0,950.8379c2.2422-124.4658,27.7739-245.2026,75.9775-359.1709,48.8027-115.3862,118.6729-219.0166,207.6685-308.0137,88.9961-88.9976,192.6265-158.8691,308.0127-207.6733C705.6284,27.7749,826.3677,2.2422,950.8379,0v950.8379H0Z"/>
      </g>
    </g>
  </g>
</svg>